<svg version="1.1" xmlns="http://www.w3.org/2000/svg" xmlns:xlink="http://www.w3.org/1999/xlink" width="63.05468" height="64.16667" viewBox="0,0,63.05468,64.16667"><g transform="translate(-208.47266,-147.91667)"><g data-paper-data="{&quot;isPaintingLayer&quot;:true}" fill-rule="nonzero" stroke-linecap="butt" stroke-linejoin="miter" stroke-miterlimit="10" stroke-dasharray="" stroke-dashoffset="0" style="mix-blend-mode: normal"><path d="M210.47266,180.00001c0,-16.3075 13.21984,-29.52734 29.52734,-29.52734c16.3075,0 29.52734,13.21984 29.52734,29.52734c0,16.3075 -13.21984,29.52734 -29.52734,29.52734c-16.3075,0 -29.52734,-13.21984 -29.52734,-29.52734z" fill="#ffffff" stroke="#ffffff" stroke-width="4"/><path d="M239.00001,211.83334v-63.66667h2v63.66667z" fill="#d0d0d0" stroke="#d0d0d0" stroke-width="0.5"/><path d="M215.30255,180.00001c0,-13.64003 11.05743,-24.69745 24.69745,-24.69745c13.64003,0 24.69745,11.05743 24.69745,24.69745c0,13.64003 -11.05743,24.69745 -24.69745,24.69745c-13.64003,0 -24.69745,-11.05743 -24.69745,-24.69745z" fill="#eaeaea" stroke="none" stroke-width="0"/></g></g></svg>